<?xml version="1.0" encoding="UTF-8" standalone="no"?>
<!-- Created with Inkscape (http://www.inkscape.org/) -->

<svg
   xmlns:dc="http://purl.org/dc/elements/1.1/"
   xmlns:cc="http://creativecommons.org/ns#"
   xmlns:rdf="http://www.w3.org/1999/02/22-rdf-syntax-ns#"
   xmlns:svg="http://www.w3.org/2000/svg"
   xmlns="http://www.w3.org/2000/svg"
   xmlns:sodipodi="http://sodipodi.sourceforge.net/DTD/sodipodi-0.dtd"
   xmlns:inkscape="http://www.inkscape.org/namespaces/inkscape"
   width="744.09448819"
   height="1052.3622047"
   id="svg2"
   version="1.1"
   inkscape:version="0.48.4 r9939"
   sodipodi:docname="eye.svg"
   inkscape:export-filename="E:\VBShare\eye.png"
   inkscape:export-xdpi="4.5045247"
   inkscape:export-ydpi="4.5045247">
  <defs
     id="defs4" />
  <sodipodi:namedview
     id="base"
     pagecolor="#ffffff"
     bordercolor="#666666"
     borderopacity="1.0"
     inkscape:pageopacity="0.0"
     inkscape:pageshadow="2"
     inkscape:zoom="23.985062"
     inkscape:cx="10.187779"
     inkscape:cy="1037.3574"
     inkscape:document-units="px"
     inkscape:current-layer="layer2"
     showgrid="false"
     inkscape:window-width="1210"
     inkscape:window-height="1006"
     inkscape:window-x="367"
     inkscape:window-y="81"
     inkscape:window-maximized="0"
     inkscape:snap-global="true"
     inkscape:snap-page="true" />
  <metadata
     id="metadata7">
    <rdf:RDF>
      <cc:Work
         rdf:about="">
        <dc:format>image/svg+xml</dc:format>
        <dc:type
           rdf:resource="http://purl.org/dc/dcmitype/StillImage" />
        <dc:title></dc:title>
      </cc:Work>
    </rdf:RDF>
  </metadata>
  <g
     inkscape:label="Eye"
     inkscape:groupmode="layer"
     id="layer1"
     style="display:inline">
    <path
       style="fill:none;stroke:#000000;stroke-width:9;stroke-linecap:round;stroke-linejoin:miter;stroke-miterlimit:4;stroke-opacity:1;stroke-dasharray:none;stroke-dashoffset:0"
       d="m 360.71875,369.5 c -62.09865,0 -116.68404,32.09936 -148.125,80.59375 30.92088,51.02472 86.94997,85.125 150.96875,85.125 62.0906,0 116.71336,-32.07865 148.15625,-80.5625 C 480.80238,403.61178 424.75242,369.5 360.71875,369.5 z"
       id="path2985"
       inkscape:connector-curvature="0" />
    <path
       sodipodi:type="arc"
       style="fill:#ffffff;fill-opacity:1;stroke:#000000;stroke-width:7;stroke-linecap:round;stroke-linejoin:miter;stroke-miterlimit:4;stroke-opacity:1;stroke-dasharray:none;stroke-dashoffset:0"
       id="path4872"
       sodipodi:cx="374.28571"
       sodipodi:cy="448.07648"
       sodipodi:rx="57.142857"
       sodipodi:ry="57.142857"
       d="m 431.42856,448.07648 a 57.142857,57.142857 0 1 1 -114.28571,0 57.142857,57.142857 0 1 1 114.28571,0 z"
       transform="translate(-12.857143,5.7142858)" />
    <path
       sodipodi:type="arc"
       style="fill:#000000;fill-opacity:1;stroke:#000000;stroke-width:1;stroke-linecap:round;stroke-linejoin:miter;stroke-miterlimit:4;stroke-opacity:1;stroke-dasharray:none;stroke-dashoffset:0"
       id="path4874"
       sodipodi:cx="365.71429"
       sodipodi:cy="458.07648"
       sodipodi:rx="12.857142"
       sodipodi:ry="12.857142"
       d="m 378.57144,458.07648 a 12.857142,12.857142 0 1 1 -25.71429,0 12.857142,12.857142 0 1 1 25.71429,0 z"
       transform="translate(-4.2857143,-4.2857143)" />
    <path
       style="fill:none;stroke:#000000;stroke-width:1;stroke-linecap:round;stroke-linejoin:miter;stroke-miterlimit:4;stroke-opacity:1;stroke-dasharray:none;stroke-dashoffset:0"
       d="M 7.34375 5.71875 C 4.4868221 5.71875 2.0224837 7.4491705 1 9.9375 C 2.0157048 12.44041 4.476309 14.21875 7.34375 14.21875 C 10.210561 14.21875 12.640136 12.439536 13.65625 9.9375 C 12.633581 7.4495725 10.200388 5.71875 7.34375 5.71875 z "
       id="path4885" />
    <path
       sodipodi:type="arc"
       style="fill:none;stroke:#000000;stroke-width:1;stroke-linecap:round;stroke-linejoin:miter;stroke-miterlimit:4;stroke-opacity:1;stroke-dasharray:none;stroke-dashoffset:0"
       id="path4890"
       sodipodi:cx="7.9841361"
       sodipodi:cy="10.130145"
       sodipodi:rx="2.8559442"
       sodipodi:ry="2.9601758"
       d="m 10.84008,10.130145 a 2.8559442,2.9601758 0 1 1 -5.7118881,0 2.8559442,2.9601758 0 1 1 5.7118881,0 z"
       transform="translate(-0.70877449,-0.08338523)" />
    <path
       sodipodi:type="arc"
       style="fill:#000000;fill-opacity:1;stroke:none"
       id="path4892"
       sodipodi:cx="7.5880561"
       sodipodi:cy="10.296915"
       sodipodi:rx="0.87554497"
       sodipodi:ry="0.83385235"
       d="m 8.4636011,10.296915 a 0.87554497,0.83385235 0 1 1 -1.75109,0 0.87554497,0.83385235 0 1 1 1.75109,0 z"
       transform="translate(-0.29184832,-0.2501557)" />
  </g>
  <g
     inkscape:groupmode="layer"
     id="layer2"
     inkscape:label="Red Circle">
    <g
       id="g4881"
       style="stroke-width:9;stroke-miterlimit:4;stroke-dasharray:none">
      <path
         transform="translate(-6.0609153,-24.243661)"
         d="m 505.07626,480.61584 a 135.36044,135.36044 0 1 1 -270.72088,0 135.36044,135.36044 0 1 1 270.72088,0 z"
         sodipodi:ry="135.36044"
         sodipodi:rx="135.36044"
         sodipodi:cy="480.61584"
         sodipodi:cx="369.71582"
         id="path4877"
         style="fill:none;stroke:#f70000;stroke-width:9;stroke-linecap:round;stroke-linejoin:miter;stroke-miterlimit:4;stroke-opacity:1;stroke-dasharray:none;stroke-dashoffset:0"
         sodipodi:type="arc" />
      <path
         inkscape:connector-curvature="0"
         id="path4879"
         d="M 274.76149,351.31632 448.50773,559.40774"
         style="fill:none;stroke:#f70000;stroke-width:9;stroke-linecap:butt;stroke-linejoin:miter;stroke-opacity:1;stroke-miterlimit:4;stroke-dasharray:none" />
    </g>
    <path
       sodipodi:type="arc"
       style="fill:none;stroke:#fb0000;stroke-opacity:1"
       id="path4894"
       sodipodi:cx="7.2128229"
       sodipodi:cy="11.610233"
       sodipodi:rx="7.2128229"
       sodipodi:ry="6.7750502"
       d="m 14.425646,11.610233 a 7.2128229,6.7750502 0 1 1 -14.425646,0 7.2128229,6.7750502 0 1 1 14.425646,0 z"
       transform="translate(0.25015603,-1.7093968)" />
    <path
       style="fill:none;stroke:#fb0000;stroke-width:1px;stroke-linecap:butt;stroke-linejoin:miter;stroke-opacity:1"
       d="M 2.6683275,4.9185679 11.924088,15.049874"
       id="path4899"
       inkscape:connector-curvature="0" />
  </g>
</svg>
